<svg xmlns="http://www.w3.org/2000/svg" version="1.1" xmlns:xlink="http://www.w3.org/1999/xlink"
   xmlns:svgjs="http://svgjs.dev/svgjs" width="308.76" height="304.91" viewBox="0 0 2000 1999">
   <g transform="matrix(1,0,0,1,-0.431486880466764,-0.4312711370263287)">
      <svg viewBox="0 0 343 343" data-background-color="#ffffff" preserveAspectRatio="xMidYMid meet"
         height="1999" width="2000" xmlns="http://www.w3.org/2000/svg"
         xmlns:xlink="http://www.w3.org/1999/xlink">
         <g id="tight-bounds" transform="matrix(1,0,0,1,0.0740000000000407,0.07400000000001228)">
            <svg viewBox="0 0 342.85155851775386 342.85155851775386" height="342.85155851775386"
               width="342.85155851775386">
               <g>
                  <svg></svg>
               </g>
               <g>
                  <svg viewBox="0 0 342.85155851775386 342.85155851775386"
                     height="342.85155851775386" width="342.85155851775386">
                     <g>
                        <path
                           d="M0 171.426c0-94.676 76.75-171.426 171.426-171.426 94.676 0 171.426 76.75 171.426 171.426 0 94.676-76.75 171.426-171.426 171.426-94.676 0-171.426-76.75-171.426-171.426zM171.426 330.063c87.613 0 158.637-71.024 158.637-158.637 0-87.613-71.024-158.637-158.637-158.637-87.613 0-158.637 71.024-158.637 158.637 0 87.613 71.024 158.637 158.637 158.637z"
                           data-fill-palette-color="tertiary" fill="#ed3b43" stroke="transparent"></path>
                        <ellipse rx="164.56874808852186" ry="164.56874808852186"
                           cx="171.42577925887693" cy="171.42577925887693" fill="#ed3b43"
                           stroke="transparent" stroke-width="0" fill-opacity="1"
                           data-fill-palette-color="tertiary"></ellipse>
                     </g>
                     <g transform="matrix(1,0,0,1,64.84655864529837,100.51841651698741)">
                        <svg viewBox="0 0 213.1584412271571 141.81472548377903"
                           height="141.81472548377903" width="213.1584412271571">
                           <g>
                              <svg viewBox="0 0 213.1584412271571 141.81472548377903"
                                 height="141.81472548377903" width="213.1584412271571">
                                 <g>
                                    <svg viewBox="0 0 213.1584412271571 141.81472548377903"
                                       height="141.81472548377903" width="213.1584412271571">
                                       <g>
                                          <svg viewBox="0 0 213.1584412271571 141.81472548377903"
                                             height="141.81472548377903" width="213.1584412271571">
                                             <g id="textblocktransform">
                                                <svg
                                                   viewBox="0 0 213.1584412271571 141.81472548377903"
                                                   height="141.81472548377903"
                                                   width="213.1584412271571" id="textblock">
                                                   <g>
                                                      <svg
                                                         viewBox="0 0 213.1584412271571 141.81472548377903"
                                                         height="141.81472548377903"
                                                         width="213.1584412271571">
                                                         <g transform="matrix(1,0,0,1,0,0)">
                                                            <svg width="213.1584412271571"
                                                               viewBox="0.58 -31.85 48.84 32.5"
                                                               height="141.81472548377903"
                                                               data-palette-color="#ffffff">
                                                               <path
                                                                  d="M0.58-1.48L0.58-1.48 0.58-6.3Q2.45-5.15 4.28-4.58 6.1-4 7.78-4L7.78-4Q10.18-4 11.24-5.41 12.3-6.83 12.3-9.53L12.3-9.53 12.3-31.85 17.05-31.85 17.05-9.53Q17.05-5.9 15.94-3.66 14.83-1.43 12.81-0.39 10.8 0.65 8.13 0.65L8.13 0.65Q6.03 0.65 4.15 0.05 2.27-0.55 0.58-1.48ZM38.25 0L25.9 0 25.9-31.85 38.22-31.85Q41.8-31.85 44.16-30.7 46.52-29.55 47.7-27.65 48.87-25.75 48.87-23.48L48.87-23.48Q48.87-20.75 47.36-18.78 45.85-16.8 42.95-16.05L42.95-16.05Q44.85-15.73 46.3-14.69 47.75-13.65 48.59-12.13 49.42-10.6 49.42-8.75L49.42-8.75Q49.42-7.18 48.87-5.63 48.32-4.08 47.05-2.8 45.77-1.53 43.62-0.76 41.47 0 38.25 0L38.25 0ZM30.65-13.83L30.65-4.15 38.15-4.15Q41.4-4.15 42.86-5.5 44.32-6.85 44.32-9L44.32-9Q44.32-11.18 42.77-12.5 41.22-13.83 38.15-13.83L38.15-13.83 30.65-13.83ZM38.1-27.75L30.65-27.75 30.65-17.95 38.05-17.95Q40.82-17.95 42.41-19.28 44-20.6 44-22.95L44-22.95Q44-25.18 42.46-26.46 40.92-27.75 38.1-27.75L38.1-27.75Z"
                                                                  opacity="1"
                                                                  transform="matrix(1,0,0,1,0,0)"
                                                                  fill="#ffffff"
                                                                  class="wordmark-text-0"
                                                                  data-fill-palette-color="quaternary"
                                                                  id="text-0"></path>
                                                            </svg>
                                                         </g>
                                                      </svg>
                                                   </g>
                                                </svg>
                                             </g>
                                          </svg>
                                       </g>
                                    </svg>
                                 </g>
                              </svg>
                           </g>
                        </svg>
                     </g>
                  </svg>
               </g>
               <defs></defs>
            </svg>
            <rect width="342.85155851775386" height="342.85155851775386" fill="none" stroke="none"
               visibility="hidden"></rect>
         </g>
      </svg>
   </g>
</svg>